<?xml version="1.0" encoding="iso-8859-1"?>
<!-- Generator: Adobe Illustrator 19.1.0, SVG Export Plug-In . SVG Version: 6.00 Build 0)  -->
<svg version="1.1" xmlns="http://www.w3.org/2000/svg" xmlns:xlink="http://www.w3.org/1999/xlink" x="0px" y="0px" viewBox="0 0 640 426" style="enable-background:new 0 0 640 426;" xml:space="preserve">
<g id="TRACE">
	<polygon style="fill:none;stroke:#FFFFFF;stroke-miterlimit:10;" points="144,245 144,329 234,398 	"  />
	<polygon style="fill:none;stroke:#FFFFFF;stroke-miterlimit:10;" points="306,200.333 345,234 306,234 	"/>
	<polygon style="fill:none;stroke:#FFFFFF;stroke-miterlimit:10;" points="306,234 268.278,263 306,200.333 	"/>
	<polygon style="fill:none;stroke:#FFFFFF;stroke-miterlimit:10;" points="306,234 302,263 268.278,263 	"/>
	<polyline points="306,200.333 344.333,213 345,234 302,263 302,263 345,234 	"/>
	<polygon style="fill:none;stroke:#FFFFFF;stroke-miterlimit:10;" points="345,234 345,263 302,263 	"/>
	<polygon style="fill:none;stroke:#FFFFFF;stroke-miterlimit:10;" points="302,263 323.5,273 345,263 	"/>
	<polygon style="fill:none;stroke:#FFFFFF;stroke-miterlimit:10;" points="344.333,213 370,245 345,234 	"/>
	<polygon style="fill:none;stroke:#FFFFFF;stroke-miterlimit:10;" points="370,245 370,268 345,234 	"/>
	<polygon style="fill:none;stroke:#FFFFFF;stroke-miterlimit:10;" points="345,263 370,268 345,234 	"/>
	<polygon style="fill:none;stroke:#FFFFFF;stroke-miterlimit:10;" points="268.278,263 276,280 302,263 	"/>
	<polygon style="fill:none;stroke:#FFFFFF;stroke-miterlimit:10;" points="345,263 370,280 370,268 	"/>
	<polygon style="fill:none;stroke:#FFFFFF;stroke-miterlimit:10;" points="351,403 412,339 428,347 	"/>
	<polygon style="fill:none;stroke:#FFFFFF;stroke-miterlimit:10;" points="241.333,318.333 292.667,309.667 310,327.667 	"/>
	<polygon style="fill:none;stroke:#FFFFFF;stroke-miterlimit:10;" points="325.637,309.667 370,327.667 320,327.667 	"/>
	<polygon style="fill:none;stroke:#FFFFFF;stroke-miterlimit:10;" points="292.667,309.667 310,315.667 310,327.667 	"/>
	<path d="M313.333,314.333"/>
	<polygon style="fill:none;stroke:#FFFFFF;stroke-miterlimit:10;" points="325.637,309.667 310,315.667 320,327.667 	"/>
	<polygon style="fill:none;stroke:#FFFFFF;stroke-miterlimit:10;" points="144,245 150.667,223.667 234,398 	"/>
	<polygon style="fill:none;stroke:#FFFFFF;stroke-miterlimit:10;" points="150.667,223.667 161.333,210.333 184.216,293.37 	"/>
	<polygon style="fill:none;stroke:#FFFFFF;stroke-miterlimit:10;" points="301.333,175.667 352.625,200.667 306,200.333 	"/>
	<polygon style="fill:none;stroke:#FFFFFF;stroke-miterlimit:10;" points="478,252.093 402.667,314.333 428,347 	"/>
	<polygon style="fill:none;stroke:#FFFFFF;stroke-miterlimit:10;" points="412,339 402.667,314.333 428,347 	"/>
	<polygon style="fill:none;stroke:#FFFFFF;stroke-miterlimit:10;" points="161.333,210.333 179.333,200.196 184.216,293.37 	"/>
	<polygon style="fill:none;stroke:#FFFFFF;stroke-miterlimit:10;" points="241.333,159.667 301.333,152.333 301.333,175.667 	"/>
	<polygon style="fill:none;stroke:#FFFFFF;stroke-miterlimit:10;" points="301.333,175.667 326.167,159 301.333,152.333 	"/>
	<polygon style="fill:none;stroke:#FFFFFF;stroke-miterlimit:10;" points="326.167,159 352.625,200.667 301.333,175.667 	"/>
	<polygon style="fill:none;stroke:#FFFFFF;stroke-miterlimit:10;" points="352.625,200.667 344.333,213 306,200.333 	"/>
	<polygon style="fill:none;stroke:#FFFFFF;stroke-miterlimit:10;" points="477.871,216.787 478,252.093 402.667,314.333 	"/>
	<polygon style="fill:none;stroke:#FFFFFF;stroke-miterlimit:10;" points="370,245 412.667,240.333 363.269,236.384 	"/>
	<polygon style="fill:none;stroke:#FFFFFF;stroke-miterlimit:10;" points="370,268 412.667,240.333 370,245 	"/>
	<polygon style="fill:none;stroke:#FFFFFF;stroke-miterlimit:10;" points="456.667,155.667 443.333,179.667 470.667,195.667 	"/>
	<polygon style="fill:none;stroke:#FFFFFF;stroke-miterlimit:10;" points="456.667,155.667 478,171.667 470.667,195.667 	"/>
	<polygon style="fill:none;stroke:#FFFFFF;stroke-miterlimit:10;" points="268.278,263 264.667,231.667 289.222,229.533 	"/>
	<polygon style="fill:none;stroke:#FFFFFF;stroke-miterlimit:10;" points="179.995,213 210.556,229.108 180.934,230.158 	"/>
	<polygon style="fill:none;stroke:#FFFFFF;stroke-miterlimit:10;" points="210.556,229.108 245.333,231.667 184.216,293.37 	"/>
	<polygon style="fill:none;stroke:#FFFFFF;stroke-miterlimit:10;" points="268.278,263 245.333,231.667 264.667,231.667 	"/>
	<polygon style="fill:none;stroke:#FFFFFF;stroke-miterlimit:10;" points="241.333,318.333 302,352.333 310,327.667 	"/>
	<polygon style="fill:none;stroke:#FFFFFF;stroke-miterlimit:10;" points="320,327.667 328.5,352.333 370,327.667 	"/>
	<polygon style="fill:none;stroke:#FFFFFF;stroke-miterlimit:10;" points="310,327.667 320,327.667 310,315.667 	"/>
	<polygon style="fill:none;stroke:#FFFFFF;stroke-miterlimit:10;" points="302,352.333 317.818,347 310,327.667 	"/>
	<polygon style="fill:none;stroke:#FFFFFF;stroke-miterlimit:10;" points="317.818,347 320,327.667 328.5,352.333 	"/>
	<polygon style="fill:none;stroke:#FFFFFF;stroke-miterlimit:10;" points="310,327.667 320,327.667 317.818,347 	"/>
	<polygon style="fill:none;stroke:#FFFFFF;stroke-miterlimit:10;" points="292.667,309.667 323.5,273 310,315.667 	"/>
	<polygon style="fill:none;stroke:#FFFFFF;stroke-miterlimit:10;" points="323.5,273 325.637,309.667 310,315.667 	"/>
	<polygon style="fill:none;stroke:#FFFFFF;stroke-miterlimit:10;" points="302,352.333 315,377 317.818,347 	"/>
	<polygon style="fill:none;stroke:#FFFFFF;stroke-miterlimit:10;" points="315,377 328.5,352.333 317.818,347 	"/>
	<polygon style="fill:none;stroke:#FFFFFF;stroke-miterlimit:10;" points="323.5,273 347.818,318.667 325.637,309.667 	"/>
	<polygon style="fill:none;stroke:#FFFFFF;stroke-miterlimit:10;" points="241.333,318.333 234,398 302,352.333 	"/>
	<polygon style="fill:none;stroke:#FFFFFF;stroke-miterlimit:10;" points="328.5,352.333 351,403 370,327.667 	"/>
	<polygon style="fill:none;stroke:#FFFFFF;stroke-miterlimit:10;" points="315,377 351,403 328.5,352.333 	"/>
	<polygon style="fill:none;stroke:#FFFFFF;stroke-miterlimit:10;" points="234,398 315,377 302,352.333 	"/>
	<polygon style="fill:none;stroke:#FFFFFF;stroke-miterlimit:10;" points="315,377 308.083,415 234,398 	"/>
	<polygon style="fill:none;stroke:#FFFFFF;stroke-miterlimit:10;" points="308.083,415 351,403 315,377 	"/>
	<polygon style="fill:none;stroke:#FFFFFF;stroke-miterlimit:10;" points="241.333,318.333 276,280 184.216,293.37 	"/>
	<polygon style="fill:none;stroke:#FFFFFF;stroke-miterlimit:10;" points="276,280 292.667,309.667 241.333,318.333 	"/>
	<polygon style="fill:none;stroke:#FFFFFF;stroke-miterlimit:10;" points="276,280 323.5,273 292.667,309.667 	"/>
	<polygon style="fill:none;stroke:#FFFFFF;stroke-miterlimit:10;" points="323.5,273 370,280 345,263 	"/>
	<polygon style="fill:none;stroke:#FFFFFF;stroke-miterlimit:10;" points="370,280 347.818,318.667 323.5,273 	"/>
	<polygon style="fill:none;stroke:#FFFFFF;stroke-miterlimit:10;" points="370,280 370,327.667 347.818,318.667 	"/>
	<polygon style="fill:none;stroke:#FFFFFF;stroke-miterlimit:10;" points="370,268 402.667,314.333 370,280 	"/>
	<polygon style="fill:none;stroke:#FFFFFF;stroke-miterlimit:10;" points="370,327.667 402.667,314.333 370,280 	"/>
	<polygon style="fill:none;stroke:#FFFFFF;stroke-miterlimit:10;" points="370,327.667 412,339 402.667,314.333 	"/>
	<polygon style="fill:none;stroke:#FFFFFF;stroke-miterlimit:10;" points="370,327.667 351,403 412,339 	"/>
	<polygon style="fill:none;stroke:#FFFFFF;stroke-miterlimit:10;" points="412.667,240.333 449.314,254.167 457.327,233 	"/>
	<polygon style="fill:none;stroke:#FFFFFF;stroke-miterlimit:10;" points="412.667,240.333 402.667,314.333 370,268 	"/>
	<polygon style="fill:none;stroke:#FFFFFF;stroke-miterlimit:10;" points="412.667,240.333 402.667,314.333 449.314,254.167 	"/>
	<polygon style="fill:none;stroke:#FFFFFF;stroke-miterlimit:10;" points="326.167,159 406.667,179.667 352.625,200.667 	"/>
	<polygon style="fill:none;stroke:#FFFFFF;stroke-miterlimit:10;" points="326.167,159 415.333,148.333 406.667,179.667 	"/>
	<polygon style="fill:none;stroke:#FFFFFF;stroke-miterlimit:10;" points="406.667,179.667 443.333,179.667 415.333,148.333 	"/>
	<polygon style="fill:none;stroke:#FFFFFF;stroke-miterlimit:10;" points="415.333,148.333 456.667,155.667 443.333,179.667 	"/>
	<polygon style="fill:none;stroke:#FFFFFF;stroke-miterlimit:10;" points="470.667,195.667 477.871,216.787 478,171.667 	"/>
	<polygon style="fill:none;stroke:#FFFFFF;stroke-miterlimit:10;" points="279.425,169.824 306,200.333 301.333,175.667 	"/>
	<polygon style="fill:none;stroke:#FFFFFF;stroke-miterlimit:10;" points="161.333,210.333 167.442,195.667 179.333,200.196 	"/>
	<polygon style="fill:none;stroke:#FFFFFF;stroke-miterlimit:10;" points="167.442,195.667 241.333,159.667 179.333,200.196 	"/>
	<polygon style="fill:none;stroke:#FFFFFF;stroke-miterlimit:10;" points="279.425,169.824 216.94,175.667 241.333,159.667 	"/>
	<polygon style="fill:none;stroke:#FFFFFF;stroke-miterlimit:10;" points="406.667,179.667 470.667,195.667 443.333,179.667 	"/>
	<polygon style="fill:none;stroke:#FFFFFF;stroke-miterlimit:10;" points="110.667,123 167.442,195.667 84,194.417 	"/>
	<polygon style="fill:none;stroke:#FFFFFF;stroke-miterlimit:10;" points="110.667,123 84,155.667 84,194.417 	"/>
	<polygon style="fill:none;stroke:#FFFFFF;stroke-miterlimit:10;" points="74,206.667 84,194.417 150.667,223.667 	"/>
	<polygon style="fill:none;stroke:#FFFFFF;stroke-miterlimit:10;" points="84,194.417 167.442,195.667 161.333,210.333 	"/>
	<polygon style="fill:none;stroke:#FFFFFF;stroke-miterlimit:10;" points="84,194.417 150.667,223.667 161.333,210.333 	"/>
	<polygon style="fill:none;stroke:#FFFFFF;stroke-miterlimit:10;" points="144,245 81.342,208.295 150.667,223.667 	"/>
	<polygon style="fill:none;stroke:#FFFFFF;stroke-miterlimit:10;" points="81.342,208.295 81.342,220.333 101.893,220.333 	"/>
	<polygon style="fill:none;stroke:#FFFFFF;stroke-miterlimit:10;" points="81.342,220.333 68.667,231.667 101.893,220.333 	"/>
	<polygon style="fill:none;stroke:#FFFFFF;stroke-miterlimit:10;" points="68.667,231.667 94,231.46 101.893,220.333 	"/>
	<polygon style="fill:none;stroke:#FFFFFF;stroke-miterlimit:10;" points="110.667,123 112.333,102.333 189,46.333 	"/>
	<polygon style="fill:none;stroke:#FFFFFF;stroke-miterlimit:10;" points="119.639,96.997 122.667,84.667 189,46.333 	"/>
	<polygon style="fill:none;stroke:#FFFFFF;stroke-miterlimit:10;" points="189,46.333 167.442,195.667 110.667,123 	"/>
	<polygon style="fill:none;stroke:#FFFFFF;stroke-miterlimit:10;" points="189,46.333 241.333,159.667 167.442,195.667 	"/>
	<polygon style="fill:none;stroke:#FFFFFF;stroke-miterlimit:10;" points="189,46.333 301.333,152.333 241.333,159.667 	"/>
	<polygon style="fill:none;stroke:#FFFFFF;stroke-miterlimit:10;" points="326.167,159 302,22.333 189,46.333 	"/>
	<polygon style="fill:none;stroke:#FFFFFF;stroke-miterlimit:10;" points="326.167,159 326.167,159 301.333,152.333 189,46.333 	"/>
	<polygon style="fill:none;stroke:#FFFFFF;stroke-miterlimit:10;" points="302,22.333 415.333,148.333 326.167,159 	"/>
	<polygon style="fill:none;stroke:#FFFFFF;stroke-miterlimit:10;" points="415.333,148.333 440.333,71.665 302,22.333 	"/>
	<polygon style="fill:none;stroke:#FFFFFF;stroke-miterlimit:10;" points="302,22.333 415.333,26.333 369.299,46.333 	"/>
	<polygon style="fill:none;stroke:#FFFFFF;stroke-miterlimit:10;" points="396.92,34.333 440.333,71.665 369.299,46.333 	"/>
	<polygon style="fill:none;stroke:#FFFFFF;stroke-miterlimit:10;" points="440.333,71.665 456.667,155.667 415.333,148.333 	"/>
	<polygon style="fill:none;stroke:#FFFFFF;stroke-miterlimit:10;" points="440.333,71.665 478,171.667 456.667,155.667 	"/>
	<polygon style="fill:none;stroke:#FFFFFF;stroke-miterlimit:10;" points="440.333,71.665 470.667,55.667 396.92,34.333 	"/>
	<polygon style="fill:none;stroke:#FFFFFF;stroke-miterlimit:10;" points="396.92,34.333 415.333,26.333 456.667,51.617 	"/>
	<polygon style="fill:none;stroke:#FFFFFF;stroke-miterlimit:10;" points="470.667,55.667 478,171.667 440.333,71.665 	"/>
	<polygon style="fill:none;stroke:#FFFFFF;stroke-miterlimit:10;" points="478,171.667 530,125.667 526.667,102.667 	"/>
	<polygon style="fill:none;stroke:#FFFFFF;stroke-miterlimit:10;" points="470.667,55.667 474.797,121 526.667,102.667 	"/>
	<polygon style="fill:none;stroke:#FFFFFF;stroke-miterlimit:10;" points="530,125.667 535.333,200.333 478,171.667 	"/>
	<path d="M478,171.667"/>
	<path d="M478,171.667"/>
	<polygon style="fill:none;stroke:#FFFFFF;stroke-miterlimit:10;" points="478,252.093 484.852,245.833 477.871,216.787 535.333,200.333 484.852,245.833 494,273 466.986,273 	"/>
	<polygon style="fill:none;stroke:#FFFFFF;stroke-miterlimit:10;" points="478,252.093 494,273 484.852,245.833 	"/>
	<polygon style="fill:none;stroke:#FFFFFF;stroke-miterlimit:10;" points="530,205.14 524,236.384 490.954,240.333 	"/>
	<polygon style="fill:none;stroke:#FFFFFF;stroke-miterlimit:10;" points="490.954,240.333 506.667,259.5 516.619,237.266 	"/>
	<polygon style="fill:none;stroke:#FFFFFF;stroke-miterlimit:10;" points="490.954,240.333 494,273 484.852,245.833 	"/>
	<polygon style="fill:none;stroke:#FFFFFF;stroke-miterlimit:10;" points="490.954,240.333 506.667,259.5 493.067,263 	"/>
	<polygon style="fill:none;stroke:#FFFFFF;stroke-miterlimit:10;" points="530,125.667 556,171.667 535.333,200.333 	"/>
	<polygon style="fill:none;stroke:#FFFFFF;stroke-miterlimit:10;" points="530,125.667 559.333,155.667 556,171.667 	"/>
	<polygon style="fill:none;stroke:#FFFFFF;stroke-miterlimit:10;" points="94,231.46 144,245 101.893,220.333 	"/>
	<polygon style="fill:none;stroke:#FFFFFF;stroke-miterlimit:10;" points="94,231.46 88,251 110.667,251.667 	"/>
	<polygon style="fill:none;stroke:#FFFFFF;stroke-miterlimit:10;" points="110.667,251.667 119.639,271.5 130.885,257.586 	"/>
	<polygon style="fill:none;stroke:#FFFFFF;stroke-miterlimit:10;" points="124.287,265.75 144,261.426 130.885,257.586 	"/>
	<polygon style="fill:none;stroke:#FFFFFF;stroke-miterlimit:10;" points="216.94,175.667 272.037,185.079 279.425,169.824 	"/>
	<polygon style="fill:none;stroke:#FFFFFF;stroke-miterlimit:10;" points="272.037,185.079 306,200.333 279.425,169.824 	"/>
	<polygon style="fill:none;stroke:#FFFFFF;stroke-miterlimit:10;" points="202.59,185.079 272.037,185.079 216.94,175.667 	"/>
	<polygon style="fill:none;stroke:#FFFFFF;stroke-miterlimit:10;" points="272.037,185.079 262,205.14 306,200.333 	"/>
	<polygon style="fill:none;stroke:#FFFFFF;stroke-miterlimit:10;" points="230.108,185.079 207.333,202.375 202.59,185.079 	"/>
	<polygon style="fill:none;stroke:#FFFFFF;stroke-miterlimit:10;" points="179.333,200.196 207.333,202.375 202.59,185.079 	"/>
	<polygon style="fill:none;stroke:#FFFFFF;stroke-miterlimit:10;" points="179.995,213 207.333,202.375 179.333,200.196 	"/>
	<polygon style="fill:none;stroke:#FFFFFF;stroke-miterlimit:10;" points="207.333,202.375 210.556,229.108 179.995,213 	"/>
	<polygon style="fill:none;stroke:#FFFFFF;stroke-miterlimit:10;" points="279.425,203 289.222,229.533 306,200.333 	"/>
	<polygon style="fill:none;stroke:#FFFFFF;stroke-miterlimit:10;" points="352.625,200.667 363.269,217.167 357.134,228.532 	"/>
	<polygon style="fill:none;stroke:#FFFFFF;stroke-miterlimit:10;" points="470.667,195.667 457.327,233 477.871,216.787 	"/>
	<polygon style="fill:none;stroke:#FFFFFF;stroke-miterlimit:10;" points="412.667,240.333 363.269,217.167 363.269,236.384 	"/>
	<polygon style="fill:none;stroke:#FFFFFF;stroke-miterlimit:10;" points="357.134,228.532 363.269,217.167 363.269,236.384 	"/>
	<polygon style="fill:none;stroke:#FFFFFF;stroke-miterlimit:10;" points="279.425,203 264.667,231.667 289.222,229.533 	"/>
	<polygon style="fill:none;stroke:#FFFFFF;stroke-miterlimit:10;" points="262,205.14 264.667,231.667 279.425,203 	"/>
	<polygon style="fill:none;stroke:#FFFFFF;stroke-miterlimit:10;" points="230.108,185.079 226.667,200.333 241.333,187.667 	"/>
	<polygon style="fill:none;stroke:#FFFFFF;stroke-miterlimit:10;" points="256.667,185.079 262,205.14 272.037,185.079 	"/>
	<polygon style="fill:none;stroke:#FFFFFF;stroke-miterlimit:10;" points="241.333,187.667 256.667,185.079 230.108,185.079 	"/>
	<polygon style="fill:none;stroke:#FFFFFF;stroke-miterlimit:10;" points="256.667,185.079 248.182,205.14 262,205.14 	"/>
	<polygon style="fill:none;stroke:#FFFFFF;stroke-miterlimit:10;" points="241.333,187.667 248.182,205.14 226.667,200.333 	"/>
	<polygon style="fill:none;stroke:#FFFFFF;stroke-miterlimit:10;" points="207.333,202.375 226.667,200.333 230.108,185.079 	"/>
	<polygon style="fill:none;stroke:#FFFFFF;stroke-miterlimit:10;" points="210.556,229.108 226.667,200.333 207.333,202.375 	"/>
	<polygon style="fill:none;stroke:#FFFFFF;stroke-miterlimit:10;" points="245.333,231.667 262,205.14 248.182,205.14 	"/>
	<polygon style="fill:none;stroke:#FFFFFF;stroke-miterlimit:10;" points="363.269,217.167 384.896,187.749 352.625,200.667 	"/>
	<polygon style="fill:none;stroke:#FFFFFF;stroke-miterlimit:10;" points="470.667,195.667 440.333,235.79 457.327,233 	"/>
	<polygon style="fill:none;stroke:#FFFFFF;stroke-miterlimit:10;" points="412.667,240.333 412.667,229 363.269,217.167 	"/>
	<polygon style="fill:none;stroke:#FFFFFF;stroke-miterlimit:10;" points="412.667,229 440.333,235.79 412.667,240.333 	"/>
	<polygon style="fill:none;stroke:#FFFFFF;stroke-miterlimit:10;" points="412.667,229 452.68,220.333 440.333,235.79 	"/>
	<polygon style="fill:none;stroke:#FFFFFF;stroke-miterlimit:10;" points="368.667,210.341 389.5,202.375 389.5,216.466 	"/>
	<polygon style="fill:none;stroke:#FFFFFF;stroke-miterlimit:10;" points="412,218.404 425,208.295 437.884,217.333 	"/>
	<polygon style="fill:none;stroke:#FFFFFF;stroke-miterlimit:10;" points="412,218.404 412.667,229 437.884,217.333 	"/>
	<polygon style="fill:none;stroke:#FFFFFF;stroke-miterlimit:10;" points="389.5,202.375 384.896,187.749 368.667,210.341 	"/>
	<polygon style="fill:none;stroke:#FFFFFF;stroke-miterlimit:10;" points="384.896,187.749 438.994,187.866 406.667,179.667 	"/>
	<polygon style="fill:none;stroke:#FFFFFF;stroke-miterlimit:10;" points="415.333,356.212 409.333,398 357.134,398.539 	"/>
	<polygon style="fill:none;stroke:#FFFFFF;stroke-miterlimit:10;" points="409.333,398 419.333,378.353 449.314,383.667 	"/>
	<polygon style="fill:none;stroke:#FFFFFF;stroke-miterlimit:10;" points="409.333,398 418,412.333 449.314,383.667 	"/>
	<polyline points="158.348,340 161.333,388.176 234,398 241.333,318.333 184.216,293.37 276,280 268.278,263
		184.216,293.37 245.333,231.667 248.182,205.14 245.333,231.667 226.667,200.333 210.556,229.108 245.333,231.667 	"/>
	<polygon style="fill:none;stroke:#FFFFFF;stroke-miterlimit:10;" points="172.775,389.723 207.333,412.333 234,398 	"/>
	<polygon style="fill:none;stroke:#FFFFFF;stroke-miterlimit:10;" points="133.333,362 159.474,358.167 161.333,388.176 	"/>
	<polygon style="fill:none;stroke:#FFFFFF;stroke-miterlimit:10;" points="207.333,412.333 284,417.667 234,398 	"/>
	<polygon style="fill:none;stroke:#FFFFFF;stroke-miterlimit:10;" points="234,398 308.083,415 284,417.667 	"/>
	<polygon style="fill:none;stroke:#FFFFFF;stroke-miterlimit:10;" points="308.083,415 317.818,422.333 284,417.667 	"/>
	<polygon style="fill:none;stroke:#FFFFFF;stroke-miterlimit:10;" points="409.333,398 404.816,418.667 357.134,398.539 	"/>
	<polygon style="fill:none;stroke:#FFFFFF;stroke-miterlimit:10;" points="351,403 317.818,422.333 308.083,415 	"/>
	<polygon style="fill:none;stroke:#FFFFFF;stroke-miterlimit:10;" points="351,403 357.134,426 317.818,422.333 	"/>
	<polygon style="fill:none;stroke:#FFFFFF;stroke-miterlimit:10;" points="357.134,398.539 357.134,426 351,403 	"/>
	<polygon style="fill:none;stroke:#FFFFFF;stroke-miterlimit:10;" points="357.134,398.539 404.816,418.667 357.134,426 	"/>
	<polygon style="fill:none;stroke:#FFFFFF;stroke-miterlimit:10;" points="409.333,398 404.816,418.667 418,412.333 	"/>
	<polygon style="fill:none;stroke:#FFFFFF;stroke-miterlimit:10;" points="363.269,217.167 389.5,216.466 368.667,210.341 	"/>
	<polygon style="fill:none;stroke:#FFFFFF;stroke-miterlimit:10;" points="389.5,216.466 412.667,229 363.269,217.167 	"/>
	<polygon style="fill:none;stroke:#FFFFFF;stroke-miterlimit:10;" points="437.884,217.333 452.68,220.333 412.667,229 	"/>
	<polygon style="fill:none;stroke:#FFFFFF;stroke-miterlimit:10;" points="389.5,216.466 412,218.404 412.667,229 	"/>
	<polygon style="fill:none;stroke:#FFFFFF;stroke-miterlimit:10;" points="389.5,202.375 438.994,187.866 384.896,187.749 	"/>
	<polygon style="fill:none;stroke:#FFFFFF;stroke-miterlimit:10;" points="402.667,198.525 425,208.295 438.994,187.866 	"/>
	<polygon style="fill:none;stroke:#FFFFFF;stroke-miterlimit:10;" points="438.994,187.866 452.68,220.333 470.667,195.667 	"/>
	<polygon style="fill:none;stroke:#FFFFFF;stroke-miterlimit:10;" points="429.324,201.874 448.346,210.333 437.884,217.333 	"/>
	<polygon style="fill:none;stroke:#FFFFFF;stroke-miterlimit:10;" points="429.324,201.874 425,208.295 437.884,217.333 	"/>
	<polygon style="fill:none;stroke:#FFFFFF;stroke-miterlimit:10;" points="389.5,216.466 402.667,198.525 412,218.404 	"/>
	<polygon style="fill:none;stroke:#FFFFFF;stroke-miterlimit:10;" points="409.333,398 419.333,378.353 412.612,375.167 	"/>
	<polygon style="fill:none;stroke:#FFFFFF;stroke-miterlimit:10;" points="144,245 234,398 150.667,223.667 	"/>
	<polygon style="fill:none;stroke:#FFFFFF;stroke-miterlimit:10;" points="144,261.426 144,245 234,398 	"/>
	<polygon style="fill:none;stroke:#FFFFFF;stroke-miterlimit:10;" points="144,245 94,231.46 144,261.426 234,398 144,329 144,261.426 	"/>
	<polygon style="fill:none;stroke:#FFFFFF;stroke-miterlimit:10;" points="158.348,340 234,398 161.333,388.176 	"/>
	<polygon style="fill:none;stroke:#FFFFFF;stroke-miterlimit:10;" points="292.667,269.103 297.601,276.817 315.625,269.025 	"/>
	<polygon style="fill:none;stroke:#FFFFFF;stroke-miterlimit:10;" points="330.402,269.79 352.353,268 352.286,277.333 	"/>
	<polygon style="fill:none;stroke:#FFFFFF;stroke-miterlimit:10;" points="306,234 345,234 302,263 	"/>
	<polygon style="fill:none;stroke:#FFFFFF;stroke-miterlimit:10;" points="306,200.333 344.333,213 345,234 	"/>
	<polygon style="fill:none;stroke:#FFFFFF;stroke-miterlimit:10;" points="301.333,175.667 352.625,200.667 306,200.333 	"/>
	<polygon style="fill:none;stroke:#FFFFFF;stroke-miterlimit:10;" points="241.333,159.667 301.333,152.333 301.333,175.667 	"/>
	<polygon style="fill:none;stroke:#FFFFFF;stroke-miterlimit:10;" points="443.333,179.667 456.667,155.667 470.667,195.667 	"/>
	<polygon style="fill:none;stroke:#FFFFFF;stroke-miterlimit:10;" points="438.994,187.866 448.346,210.333 429.324,201.874 	"/>
	<polygon style="fill:none;stroke:#FFFFFF;stroke-miterlimit:10;" points="437.884,217.333 452.68,220.333 448.346,210.333 	"/>
	<polygon style="fill:none;stroke:#FFFFFF;stroke-miterlimit:10;" points="167.442,195.667 241.333,159.667 179.333,200.196 	"/>
	<polygon style="fill:none;stroke:#FFFFFF;stroke-miterlimit:10;" points="184.216,293.37 245.333,231.667 268.278,263 	"/>
	<path style="fill:none;" d="M180.934,230.158"/>
	<polygon style="fill:none;stroke:#FFFFFF;stroke-miterlimit:10;" points="210.556,229.108 180.934,230.158 184.216,293.37 	"/>
	<polygon style="fill:none;stroke:#FFFFFF;stroke-miterlimit:10;" points="150.667,223.667 161.333,210.333 184.216,293.37 	"/>
	<polygon style="fill:none;stroke:#FFFFFF;stroke-miterlimit:10;" points="226.667,200.333 248.182,205.14 245.333,231.667 	"/>
	<polygon style="fill:none;stroke:#FFFFFF;stroke-miterlimit:10;" points="306,200.333 268.278,263 306,234 	"/>
	<polygon style="fill:none;stroke:#FFFFFF;stroke-miterlimit:10;" points="226.667,200.333 248.182,205.14 245.333,231.667 	"/>
	<polygon style="fill:none;stroke:#FFFFFF;stroke-miterlimit:10;" points="245.333,231.667 262,205.14 264.667,231.667 	"/>
	<polygon style="fill:none;stroke:#FFFFFF;stroke-miterlimit:10;" points="292.667,269.103 315.625,269.025 302,263 	"/>
	<polygon style="fill:none;stroke:#FFFFFF;stroke-miterlimit:10;" points="276,280 297.601,276.817 292.667,269.103 	"/>
	<polygon style="fill:none;stroke:#FFFFFF;stroke-miterlimit:10;" points="315.625,269.025 323.5,273 297.601,276.817 	"/>
	<polygon style="fill:none;stroke:#FFFFFF;stroke-miterlimit:10;" points="184.216,293.37 276,280 241.333,318.333 	"/>
	<polygon style="fill:none;stroke:#FFFFFF;stroke-miterlimit:10;" points="84,194.417 167.442,195.667 110.667,123 	"/>
	<polygon style="fill:none;stroke:#FFFFFF;stroke-miterlimit:10;" points="241.333,318.333 292.667,309.667 310,327.667 	"/>
	<polygon style="fill:none;stroke:#FFFFFF;stroke-miterlimit:10;" points="325.637,309.667 370,327.667 320,327.667 	"/>
	<polygon style="fill:none;stroke:#FFFFFF;stroke-miterlimit:10;" points="474.797,121 478,171.667 526.667,102.667 	"/>
	<polygon style="fill:none;stroke:#FFFFFF;stroke-miterlimit:10;" points="474.797,121 478,171.667 526.667,102.667 	"/>
	<polygon style="fill:none;stroke:#FFFFFF;stroke-miterlimit:10;" points="474.797,121 526.667,102.667 478,171.667 	"/>
	<polygon style="fill:none;stroke:#FFFFFF;stroke-miterlimit:10;" points="144,261.426 144,245 94,231.46 	"/>
	<polygon style="fill:none;stroke:#FFFFFF;stroke-miterlimit:10;" points="94,231.46 144,261.426 110.667,251.667 	"/>
	<polygon style="fill:none;stroke:#FFFFFF;stroke-miterlimit:10;" points="89.126,247.333 84,231.667 94,231.46 	"/>
	<path d="M205.887,226.647"/>
	<polygon style="fill:none;stroke:#FFFFFF;stroke-miterlimit:10;" points="478,171.667 535.333,200.333 477.871,216.787 	"/>
	<polygon style="fill:none;stroke:#FFFFFF;stroke-miterlimit:10;" points="474.797,121 478,171.667 526.667,102.667 	"/>
	<polygon style="fill:none;stroke:#FFFFFF;stroke-miterlimit:10;" points="292.667,269.103 302,263 315.625,269.025 	"/>
	<polygon style="fill:none;stroke:#FFFFFF;stroke-miterlimit:10;" points="241.333,187.667 248.182,205.14 256.667,185.079 	"/>
	<polygon style="fill:none;stroke:#FFFFFF;stroke-miterlimit:10;" points="230.108,185.079 241.333,187.667 226.667,200.333 	"/>
	<polygon style="fill:none;stroke:#FFFFFF;stroke-miterlimit:10;" points="389.5,202.375 389.5,216.466 402.667,198.525 	"/>
	<polygon style="fill:none;stroke:#FFFFFF;stroke-miterlimit:10;" points="402.667,198.525 425,208.295 412,218.404 	"/>
	<polygon style="fill:none;stroke:#FFFFFF;stroke-miterlimit:10;" points="477.871,216.787 478,252.093 484.852,245.833 	"/>
	<polygon style="fill:none;stroke:#FFFFFF;stroke-miterlimit:10;" points="457.327,291.333 466.986,273 481.333,291.167 	"/>
	<polygon style="fill:none;stroke:#FFFFFF;stroke-miterlimit:10;" points="478,252.093 484.852,245.833 477.871,216.787 	"/>
	<polygon style="fill:none;stroke:#FFFFFF;stroke-miterlimit:10;" points="344.333,213 352.625,200.667 357.134,228.532 	"/>
	<polygon style="fill:none;stroke:#FFFFFF;stroke-miterlimit:10;" points="210.556,229.108 245.333,231.667 226.667,200.333 	"/>
	<polygon style="fill:none;stroke:#FFFFFF;stroke-miterlimit:10;" points="396.083,217.033 400.75,208.295 406.667,217.944 	"/>
	<polygon style="fill:none;stroke:#FFFFFF;stroke-miterlimit:10;" points="400.75,208.295 402.667,198.525 389.5,216.466 	"/>
	<polygon style="fill:none;stroke:#FFFFFF;stroke-miterlimit:10;" points="400.75,208.295 406.667,217.944 402.667,198.525 	"/>
	<polygon style="fill:none;stroke:#FFFFFF;stroke-miterlimit:10;" points="406.667,217.944 412,218.404 402.667,198.525 	"/>
	<polyline points="389.5,216.466 396.083,217.033 400.75,208.295 	"/>
	<polygon style="fill:none;stroke:#FFFFFF;stroke-miterlimit:10;" points="233.563,201.874 237.424,196.404 243.387,204.069 	"/>
	<polygon style="fill:none;stroke:#FFFFFF;stroke-miterlimit:10;" points="237.424,196.404 241.333,187.667 226.667,200.333 	"/>
	<polygon style="fill:none;stroke:#FFFFFF;stroke-miterlimit:10;" points="237.424,196.404 233.563,201.874 226.667,200.333 	"/>
	<polygon style="fill:none;stroke:#FFFFFF;stroke-miterlimit:10;" points="241.333,187.667 243.387,204.069 237.424,196.404 	"/>
	<polygon style="fill:none;stroke:#FFFFFF;stroke-miterlimit:10;" points="243.387,204.069 248.182,205.14 241.333,187.667 	"/>
	<polygon style="fill:none;stroke:#FFFFFF;stroke-miterlimit:10;" points="216.94,175.667 272.037,177.452 272.037,185.079 	"/>
	<polygon style="fill:none;stroke:#FFFFFF;stroke-miterlimit:10;" points="272.037,177.452 306,200.333 272.037,185.079 	"/>
	<polygon style="fill:none;stroke:#FFFFFF;stroke-miterlimit:10;" points="352.625,200.667 360.201,190 406.667,179.667 	"/>
	<path d="M352.625,200.667"/>
	<polygon style="fill:none;stroke:#FFFFFF;stroke-miterlimit:10;" points="473.898,205.14 470.166,223.167 477.871,216.787 	"/>
	<polygon style="fill:none;stroke:#FFFFFF;stroke-miterlimit:10;" points="470.667,195.667 473.898,205.14 457.327,233 	"/>
	<polygon style="fill:none;stroke:#FFFFFF;stroke-miterlimit:10;" points="457.327,233 470.166,223.167 473.898,205.14 	"/>
	<polygon style="fill:none;stroke:#FFFFFF;stroke-miterlimit:10;" points="466.986,273 484.019,273 478,286.946 	"/>
	<polygon style="fill:none;stroke:#FFFFFF;stroke-miterlimit:10;" points="144,261.426 144,245 234,398 	"/>
	<polygon style="fill:none;stroke:#FFFFFF;stroke-miterlimit:10;" points="268.278,263 276,280 184.216,293.37 	"/>
	<polygon style="fill:none;stroke:#FFFFFF;stroke-miterlimit:10;" points="184.216,293.37 241.333,318.333 234,398 	"/>
	<polygon style="fill:none;stroke:#FFFFFF;stroke-miterlimit:10;" points="457.327,233 477.871,216.787 449.314,254.167 	"/>
	<polygon style="fill:none;stroke:#FFFFFF;stroke-miterlimit:10;" points="484.852,245.833 490.954,240.333 494,273 	"/>
	<polygon style="fill:none;stroke:#FFFFFF;stroke-miterlimit:10;" points="478,252.093 494,273 484.852,245.833 	"/>
	<polygon style="fill:none;stroke:#FFFFFF;stroke-miterlimit:10;" points="478,252.093 478,274.551 494,273 	"/>
	<polygon style="fill:none;stroke:#FFFFFF;stroke-miterlimit:10;" points="478,252.093 478,271.5 466.986,273 	"/>
	<polygon style="fill:none;stroke:#FFFFFF;stroke-miterlimit:10;" points="306,200.333 328.5,194.417 326.979,203 	"/>
	<polygon style="fill:none;stroke:#FFFFFF;stroke-miterlimit:10;" points="328.5,194.417 352.625,200.667 326.979,203 	"/>
</g>
</svg>
